<svg width="24" height="24" viewBox="0 0 24 24" fill="none" xmlns="http://www.w3.org/2000/svg">
<g clip-path="url(#clip0_91_6342)">
<path d="M22.501 2.25L1.50098 23.25" stroke="#050E1D" stroke-width="1.5" stroke-linecap="round" stroke-linejoin="round"/>
<path d="M10 21.75C10.127 22.1827 10.3908 22.5626 10.7518 22.8328C11.1127 23.1031 11.5516 23.2492 12.0025 23.2492C12.4534 23.2492 12.8923 23.1031 13.2532 22.8328C13.6142 22.5626 13.878 22.1827 14.005 21.75" stroke="#050E1D" stroke-width="1.5" stroke-linecap="round" stroke-linejoin="round"/>
<path d="M12.001 3V0.75" stroke="#050E1D" stroke-width="1.5" stroke-linecap="round" stroke-linejoin="round"/>
<path d="M10.5 18.75H21C21 18.75 19.5 17.55 19.5 10.5C19.4883 10.1933 19.4573 9.88772 19.407 9.58499" stroke="#050E1D" stroke-width="1.5" stroke-linecap="round" stroke-linejoin="round"/>
<path d="M16.212 4.29999C15.0848 3.53491 13.7705 3.0913 12.4102 3.01678C11.05 2.94227 9.69507 3.23966 8.49105 3.87704C7.28703 4.51441 6.27935 5.46769 5.57621 6.63452C4.87306 7.80136 4.50101 9.13767 4.5 10.5V15.75" stroke="#050E1D" stroke-width="1.5" stroke-linecap="round" stroke-linejoin="round"/>
</g>
<defs>
<clipPath id="clip0_91_6342">
<rect width="24" height="24" fill="white"/>
</clipPath>
</defs>
</svg>
