<svg width="24" height="24" viewBox="0 0 24 24" fill="none" xmlns="http://www.w3.org/2000/svg">
<g clip-path="url(#clip0_91_6360)">
<path d="M1.27995 13.281C0.940605 12.9413 0.75 12.4807 0.75 12.0005C0.75 11.5203 0.940605 11.0598 1.27995 10.72L10.7199 1.28101C10.8879 1.11266 11.0874 0.97909 11.307 0.887955C11.5267 0.796819 11.7621 0.749908 11.9999 0.749908C12.2377 0.749908 12.4732 0.796819 12.6929 0.887955C12.9125 0.97909 13.112 1.11266 13.2799 1.28101L22.7199 10.72C23.0593 11.0598 23.2499 11.5203 23.2499 12.0005C23.2499 12.4807 23.0593 12.9413 22.7199 13.281L13.2799 22.72C12.9404 23.0593 12.48 23.2499 11.9999 23.2499C11.5199 23.2499 11.0595 23.0593 10.7199 22.72L1.27995 13.281Z" stroke="#050E1D" stroke-width="1.5" stroke-linecap="round" stroke-linejoin="round"/>
<path d="M12 16.5C11.9258 16.5 11.8533 16.522 11.7917 16.5632C11.73 16.6044 11.6819 16.663 11.6535 16.7315C11.6252 16.8 11.6177 16.8754 11.6322 16.9482C11.6467 17.0209 11.6824 17.0877 11.7348 17.1402C11.7873 17.1926 11.8541 17.2283 11.9268 17.2428C11.9996 17.2573 12.075 17.2498 12.1435 17.2215C12.212 17.1931 12.2706 17.145 12.3118 17.0833C12.353 17.0217 12.375 16.9492 12.375 16.875C12.375 16.7755 12.3355 16.6802 12.2652 16.6098C12.1948 16.5395 12.0995 16.5 12 16.5Z" fill="#050E1D" stroke="#050E1D" stroke-width="1.5" stroke-linecap="round" stroke-linejoin="round"/>
<path d="M12 13.5V6" stroke="#050E1D" stroke-width="1.5" stroke-miterlimit="10" stroke-linecap="round"/>
</g>
<defs>
<clipPath id="clip0_91_6360">
<rect width="24" height="24" fill="white"/>
</clipPath>
</defs>
</svg>
