<svg width="24" height="24" viewBox="0 0 24 24" fill="none" xmlns="http://www.w3.org/2000/svg">
<path d="M7.93115 21.1153C8.8787 21.6927 9.97666 21.9991 11.0976 21.999H13.9756C15.3184 22.0003 16.6066 21.4863 17.5558 20.5705V20.5705C18.5043 19.6559 19.0372 18.4154 19.0373 17.122V9.85645" stroke="#050E1D" stroke-linecap="round" stroke-linejoin="round"/>
<path d="M10.1503 9.85742V4.85753C10.1503 4.06857 9.48705 3.42899 8.66885 3.42899V3.42899C7.85065 3.42899 7.18737 4.06857 7.18737 4.85753V14.143L4.77848 12.2859C4.44582 12.0293 4.01672 11.919 3.59572 11.982C3.17473 12.0451 2.80048 12.2755 2.56416 12.6174V12.6174C2.22341 13.1094 2.22341 13.751 2.56416 14.243L3.97848 16.2859" stroke="#050E1D" stroke-linecap="round" stroke-linejoin="round"/>
<path d="M13.1148 5.57135V3.42854C13.1148 2.63958 12.4515 2 11.6333 2V2C10.8151 2 10.1519 2.63958 10.1519 3.42854V4.85708" stroke="#050E1D" stroke-linecap="round" stroke-linejoin="round"/>
<path d="M16.0709 4.85753C16.0709 4.06857 15.4076 3.42899 14.5894 3.42899V3.42899C13.7712 3.42899 13.1079 4.06857 13.1079 4.85753V7.00034" stroke="#050E1D" stroke-linecap="round" stroke-linejoin="round"/>
<path d="M22 3.42899L2 22" stroke="#050E1D" stroke-linecap="round" stroke-linejoin="round"/>
</svg>
