<svg width="24" height="24" viewBox="0 0 24 24" fill="none" xmlns="http://www.w3.org/2000/svg">
<g clip-path="url(#clip0_91_6568)">
<path d="M23.437 19L13.711 2.93C13.5329 2.63566 13.2818 2.39225 12.9821 2.22331C12.6824 2.05437 12.3441 1.96561 12 1.96561C11.656 1.96561 11.3177 2.05437 11.018 2.22331C10.7183 2.39225 10.4672 2.63566 10.289 2.93L0.563048 19C0.379599 19.3033 0.280069 19.65 0.274648 20.0044C0.269227 20.3589 0.358112 20.7084 0.532199 21.0172C0.706286 21.326 0.95932 21.583 1.26539 21.7618C1.57146 21.9407 1.91956 22.0349 2.27405 22.035H21.726C22.0805 22.0349 22.4286 21.9407 22.7347 21.7618C23.0408 21.583 23.2938 21.326 23.4679 21.0172C23.642 20.7084 23.7309 20.3589 23.7254 20.0044C23.72 19.65 23.6205 19.3033 23.437 19Z" fill="#050E1D"/>
</g>
<defs>
<clipPath id="clip0_91_6568">
<rect width="24" height="24" fill="white"/>
</clipPath>
</defs>
</svg>
