<svg width="24" height="24" viewBox="0 0 24 24" fill="none" xmlns="http://www.w3.org/2000/svg">
<g clip-path="url(#clip0_91_6565)">
<path d="M23.4679 2.984C23.2939 2.67515 23.0408 2.41812 22.7347 2.23924C22.4286 2.06036 22.0805 1.96606 21.7259 1.966H2.27393C1.91959 1.96618 1.57166 2.06048 1.26574 2.23928C0.959813 2.41807 0.706883 2.67493 0.532826 2.98357C0.358769 3.29222 0.269835 3.64156 0.275125 3.99586C0.280415 4.35016 0.379738 4.69669 0.562932 5L10.2889 21.07C10.4671 21.3643 10.7182 21.6078 11.0179 21.7767C11.3176 21.9456 11.6559 22.0344 11.9999 22.0344C12.344 22.0344 12.6822 21.9456 12.982 21.7767C13.2817 21.6078 13.5328 21.3643 13.7109 21.07L23.4369 5C23.6202 4.69682 23.7196 4.35041 23.7251 3.9962C23.7305 3.64198 23.6418 3.29267 23.4679 2.984Z" fill="#050E1D"/>
</g>
<defs>
<clipPath id="clip0_91_6565">
<rect width="24" height="24" fill="white"/>
</clipPath>
</defs>
</svg>
