<svg width="24" height="24" viewBox="0 0 24 24" fill="none" xmlns="http://www.w3.org/2000/svg">
<path d="M18 19.125H8.079C7.72467 19.125 7.38176 18.9996 7.11105 18.771C6.84034 18.5424 6.65929 18.2253 6.6 17.876L3.963 2.37599C3.9035 2.02684 3.72236 1.71 3.45167 1.48159C3.18097 1.25317 2.83819 1.12792 2.484 1.12799H1.5" stroke="black" stroke-width="1.5" stroke-linecap="round" stroke-linejoin="round"/>
<path d="M16.125 21.375C16.0508 21.375 15.9783 21.397 15.9167 21.4382C15.855 21.4794 15.8069 21.538 15.7785 21.6065C15.7502 21.675 15.7427 21.7504 15.7572 21.8232C15.7717 21.8959 15.8074 21.9627 15.8598 22.0152C15.9123 22.0676 15.9791 22.1033 16.0518 22.1178C16.1246 22.1323 16.2 22.1248 16.2685 22.0965C16.337 22.0681 16.3956 22.02 16.4368 21.9583C16.478 21.8967 16.5 21.8242 16.5 21.75C16.5 21.6505 16.4605 21.5552 16.3902 21.4848C16.3198 21.4145 16.2245 21.375 16.125 21.375Z" fill="black" stroke="black" stroke-width="1.5" stroke-linecap="round" stroke-linejoin="round"/>
<path d="M8.625 21.375C8.55083 21.375 8.47833 21.397 8.41666 21.4382C8.35499 21.4794 8.30693 21.538 8.27855 21.6065C8.25016 21.675 8.24274 21.7504 8.25721 21.8232C8.27168 21.8959 8.30739 21.9627 8.35983 22.0152C8.41228 22.0676 8.4791 22.1033 8.55184 22.1178C8.62458 22.1323 8.69998 22.1248 8.76851 22.0965C8.83703 22.0681 8.8956 22.02 8.9368 21.9583C8.97801 21.8967 9 21.8242 9 21.75C9 21.6505 8.96049 21.5552 8.89017 21.4848C8.81984 21.4145 8.72446 21.375 8.625 21.375" stroke="black" stroke-width="1.5" stroke-linecap="round" stroke-linejoin="round"/>
<path d="M6.04707 14.625H18.1181C18.787 14.6249 19.4367 14.4013 19.9639 13.9896C20.4912 13.578 20.8657 13.0019 21.0281 12.353L22.4781 6.55297C22.5057 6.44236 22.5078 6.3269 22.4842 6.21536C22.4605 6.10382 22.4117 5.99914 22.3415 5.90929C22.2714 5.81943 22.1816 5.74676 22.0791 5.6968C21.9766 5.64684 21.8641 5.62091 21.7501 5.62097H4.51607" stroke="black" stroke-width="1.5" stroke-linecap="round" stroke-linejoin="round"/>
</svg>
