<svg width="24" height="24" viewBox="0 0 24 24" fill="none" xmlns="http://www.w3.org/2000/svg">
<g clip-path="url(#clip0_91_6432)">
<path d="M14.25 5.25H2.25C1.85218 5.25 1.47064 5.40804 1.18934 5.68934C0.908035 5.97064 0.75 6.35218 0.75 6.75V20.25C0.75 20.6478 0.908035 21.0294 1.18934 21.3107C1.47064 21.592 1.85218 21.75 2.25 21.75H21.75C22.1478 21.75 22.5294 21.592 22.8107 21.3107C23.092 21.0294 23.25 20.6478 23.25 20.25V6.75C23.25 6.35218 23.092 5.97064 22.8107 5.68934C22.5294 5.40804 22.1478 5.25 21.75 5.25H14.25Z" stroke="#050E1D" stroke-width="1.5" stroke-linecap="round" stroke-linejoin="round"/>
<path d="M12 15.625C13.6914 15.625 15.0625 14.2539 15.0625 12.5625C15.0625 10.8711 13.6914 9.5 12 9.5C10.3086 9.5 8.9375 10.8711 8.9375 12.5625C8.9375 14.2539 10.3086 15.625 12 15.625Z" stroke="#050E1D" stroke-width="1.5" stroke-linecap="round" stroke-linejoin="round"/>
<path d="M6.75 21.75C6.75 20.3576 7.30312 19.0223 8.28769 18.0377C9.27226 17.0531 10.6076 16.5 12 16.5C13.3924 16.5 14.7277 17.0531 15.7123 18.0377C16.6969 19.0223 17.25 20.3576 17.25 21.75H6.75Z" stroke="#050E1D" stroke-width="1.5" stroke-linecap="round" stroke-linejoin="round"/>
</g>
<defs>
<clipPath id="clip0_91_6432">
<rect width="24" height="24" fill="white"/>
</clipPath>
</defs>
</svg>
