<svg width="24" height="24" viewBox="0 0 24 24" fill="none" xmlns="http://www.w3.org/2000/svg">
<path d="M12.25 1C10.025 1 7.84989 1.6598 5.99984 2.89597C4.14979 4.13213 2.70785 5.88914 1.85636 7.94481C1.00487 10.0005 0.782087 12.2625 1.21617 14.4448C1.65025 16.6271 2.72171 18.6316 4.29505 20.2049C5.86839 21.7783 7.87295 22.8497 10.0552 23.2838C12.2375 23.7179 14.4995 23.4951 16.5552 22.6436C18.6109 21.7922 20.3679 20.3502 21.604 18.5002C22.8402 16.6501 23.5 14.475 23.5 12.25C23.4968 9.2673 22.3105 6.4077 20.2014 4.29861C18.0923 2.18953 15.2327 1.00323 12.25 1V1ZM12.4844 5.6875C12.7625 5.6875 13.0344 5.76997 13.2656 5.9245C13.4969 6.07902 13.6771 6.29864 13.7836 6.5556C13.89 6.81256 13.9179 7.09531 13.8636 7.36809C13.8093 7.64088 13.6754 7.89145 13.4787 8.08812C13.2821 8.28479 13.0315 8.41872 12.7587 8.47298C12.4859 8.52724 12.2032 8.49939 11.9462 8.39295C11.6893 8.28652 11.4696 8.10628 11.3151 7.87502C11.1606 7.64376 11.0781 7.37188 11.0781 7.09375C11.0781 6.72079 11.2263 6.3631 11.49 6.09938C11.7537 5.83566 12.1114 5.6875 12.4844 5.6875ZM14.5938 18.3437H10.8438C10.5951 18.3437 10.3567 18.245 10.1808 18.0692C10.005 17.8933 9.90625 17.6549 9.90625 17.4062C9.90625 17.1576 10.005 16.9192 10.1808 16.7433C10.3567 16.5675 10.5951 16.4687 10.8438 16.4687H11.5469C11.609 16.4687 11.6687 16.4441 11.7126 16.4001C11.7566 16.3561 11.7813 16.2965 11.7813 16.2344V12.0156C11.7813 11.9535 11.7566 11.8938 11.7126 11.8499C11.6687 11.8059 11.609 11.7812 11.5469 11.7812H10.8438C10.5951 11.7812 10.3567 11.6825 10.1808 11.5067C10.005 11.3308 9.90625 11.0924 9.90625 10.8437C9.90625 10.5951 10.005 10.3567 10.1808 10.1808C10.3567 10.005 10.5951 9.90625 10.8438 9.90625H11.7813C12.2785 9.90625 12.7554 10.1038 13.1071 10.4554C13.4587 10.8071 13.6563 11.284 13.6563 11.7812V16.2344C13.6563 16.2965 13.6809 16.3561 13.7249 16.4001C13.7689 16.4441 13.8285 16.4687 13.8906 16.4687H14.5938C14.8424 16.4687 15.0809 16.5675 15.2567 16.7433C15.4325 16.9192 15.5313 17.1576 15.5313 17.4062C15.5313 17.6549 15.4325 17.8933 15.2567 18.0692C15.0809 18.245 14.8424 18.3437 14.5938 18.3437Z" fill="#050E1D"/>
</svg>
