<svg width="24" height="24" viewBox="0 0 24 24" fill="none" xmlns="http://www.w3.org/2000/svg">
<g clip-path="url(#clip0_1891_12486)">
<path d="M3 5.24799C4.24264 5.24799 5.25 4.24063 5.25 2.99799C5.25 1.75535 4.24264 0.747986 3 0.747986C1.75736 0.747986 0.75 1.75535 0.75 2.99799C0.75 4.24063 1.75736 5.24799 3 5.24799Z" stroke="black" stroke-width="1.5" stroke-linecap="round" stroke-linejoin="round"/>
<path d="M3 14.248C4.24264 14.248 5.25 13.2406 5.25 11.998C5.25 10.7553 4.24264 9.74799 3 9.74799C1.75736 9.74799 0.75 10.7553 0.75 11.998C0.75 13.2406 1.75736 14.248 3 14.248Z" stroke="black" stroke-width="1.5" stroke-linecap="round" stroke-linejoin="round"/>
<path d="M3 23.248C4.24264 23.248 5.25 22.2406 5.25 20.998C5.25 19.7553 4.24264 18.748 3 18.748C1.75736 18.748 0.75 19.7553 0.75 20.998C0.75 22.2406 1.75736 23.248 3 23.248Z" stroke="black" stroke-width="1.5" stroke-linecap="round" stroke-linejoin="round"/>
<path d="M8.25 3.74799H23.25" stroke="black" stroke-width="1.5" stroke-linecap="round" stroke-linejoin="round"/>
<path d="M8.25 12.748H23.25" stroke="black" stroke-width="1.5" stroke-linecap="round" stroke-linejoin="round"/>
<path d="M8.25 21.748H23.25" stroke="black" stroke-width="1.5" stroke-linecap="round" stroke-linejoin="round"/>
</g>
<defs>
<clipPath id="clip0_1891_12486">
<rect width="24" height="24" fill="white"/>
</clipPath>
</defs>
</svg>
