<svg width="24" height="24" viewBox="0 0 24 24" fill="none" xmlns="http://www.w3.org/2000/svg">
<path d="M4.5 15C5.88071 15 7 13.8807 7 12.5C7 11.1193 5.88071 10 4.5 10C3.11929 10 2 11.1193 2 12.5C2 13.8807 3.11929 15 4.5 15Z" fill="#050E1D"/>
<path d="M11.7891 15C13.1698 15 14.2891 13.8807 14.2891 12.5C14.2891 11.1193 13.1698 10 11.7891 10C10.4084 10 9.28906 11.1193 9.28906 12.5C9.28906 13.8807 10.4084 15 11.7891 15Z" fill="#050E1D"/>
<path d="M19.082 15C20.4627 15 21.582 13.8807 21.582 12.5C21.582 11.1193 20.4627 10 19.082 10C17.7013 10 16.582 11.1193 16.582 12.5C16.582 13.8807 17.7013 15 19.082 15Z" fill="#050E1D"/>
</svg>
