<svg width="24" height="24" viewBox="0 0 24 24" fill="none" xmlns="http://www.w3.org/2000/svg">
<g clip-path="url(#clip0_91_7113)">
<path d="M7.5 0.75V3.75M7.5 6.75V12.75M7.5 20.25V23.25M16.5 23.25V20.25M16.5 17.25V11.25M16.5 3.75V0.75M16.5 6.75V8.25M7.5 15.75V17.25M3 0.75H21C21.8284 0.75 22.5 1.42157 22.5 2.25V21.75C22.5 22.5784 21.8284 23.25 21 23.25H3C2.17157 23.25 1.5 22.5784 1.5 21.75V2.25C1.5 1.42157 2.17157 0.75 3 0.75ZM6.75 3.75H8.25C9.07843 3.75 9.75 4.42157 9.75 5.25C9.75 6.07843 9.07843 6.75 8.25 6.75H6.75C5.92157 6.75 5.25 6.07843 5.25 5.25C5.25 4.42157 5.92157 3.75 6.75 3.75ZM6.75 12.75H8.25C9.07843 12.75 9.75 13.4216 9.75 14.25C9.75 15.0784 9.07843 15.75 8.25 15.75H6.75C5.92157 15.75 5.25 15.0784 5.25 14.25C5.25 13.4216 5.92157 12.75 6.75 12.75ZM6.75 17.25H8.25C9.07843 17.25 9.75 17.9216 9.75 18.75C9.75 19.5784 9.07843 20.25 8.25 20.25H6.75C5.92157 20.25 5.25 19.5784 5.25 18.75C5.25 17.9216 5.92157 17.25 6.75 17.25ZM15.75 17.25H17.25C18.0784 17.25 18.75 17.9216 18.75 18.75C18.75 19.5784 18.0784 20.25 17.25 20.25H15.75C14.9216 20.25 14.25 19.5784 14.25 18.75C14.25 17.9216 14.9216 17.25 15.75 17.25ZM15.75 8.25H17.25C18.0784 8.25 18.75 8.92157 18.75 9.75C18.75 10.5784 18.0784 11.25 17.25 11.25H15.75C14.9216 11.25 14.25 10.5784 14.25 9.75C14.25 8.92157 14.9216 8.25 15.75 8.25ZM15.75 3.75H17.25C18.0784 3.75 18.75 4.42157 18.75 5.25C18.75 6.07843 18.0784 6.75 17.25 6.75H15.75C14.9216 6.75 14.25 6.07843 14.25 5.25C14.25 4.42157 14.9216 3.75 15.75 3.75Z" stroke="black" stroke-width="1.5" stroke-linecap="round" stroke-linejoin="round"/>
</g>
<defs>
<clipPath id="clip0_91_7113">
<rect width="24" height="24" fill="white"/>
</clipPath>
</defs>
</svg>
