<svg width="24" height="24" viewBox="0 0 24 24" fill="none" xmlns="http://www.w3.org/2000/svg">
<g clip-path="url(#clip0_91_6927)">
<path d="M12 9.75098C5.787 9.75098 0.75 7.73598 0.75 5.25098M0.75 5.25098C0.75 2.76598 5.787 0.750977 12 0.750977C18.213 0.750977 23.25 2.76498 23.25 5.25098M0.75 5.25098V11.251M23.25 5.25098C23.25 6.42498 22.125 7.49398 20.283 8.29598M23.25 5.25098V10.452M0.75 11.251C0.75 13.209 3.878 14.875 8.244 15.494M0.75 11.251V17.251C0.75 19.318 4.236 21.06 8.985 21.587M19.924 15.506L17.019 19.38C16.9544 19.4659 16.8721 19.5369 16.7777 19.5883C16.6833 19.6397 16.579 19.6702 16.4717 19.6778C16.3645 19.6854 16.2569 19.6698 16.1562 19.6323C16.0555 19.5947 15.964 19.5359 15.888 19.46L14.388 17.96M23.25 17.251C23.25 20.5647 20.5637 23.251 17.25 23.251C13.9363 23.251 11.25 20.5647 11.25 17.251C11.25 13.9373 13.9363 11.251 17.25 11.251C20.5637 11.251 23.25 13.9373 23.25 17.251Z" stroke="#050E1D" stroke-width="1.5" stroke-linecap="round" stroke-linejoin="round"/>
</g>
<defs>
<clipPath id="clip0_91_6927">
<rect width="24" height="24" fill="white"/>
</clipPath>
</defs>
</svg>
