<svg width="24" height="24" viewBox="0 0 24 24" fill="none" xmlns="http://www.w3.org/2000/svg">
<g clip-path="url(#clip0_91_7014)">
<path d="M12 9.75098C5.787 9.75098 0.75 7.73598 0.75 5.25098M0.75 5.25098C0.75 2.76598 5.787 0.750977 12 0.750977C18.213 0.750977 23.25 2.76498 23.25 5.25098M0.75 5.25098V11.251M23.25 5.25098C23.25 6.39798 22.177 7.44498 20.411 8.23898M23.25 5.25098V9.75098M0.75 11.251C0.75 13.314 4.222 15.051 8.956 15.584M0.75 11.251V17.251C0.75 19.317 4.231 21.057 8.975 21.586M18.75 16.501C18.75 17.3294 18.0784 18.001 17.25 18.001C16.4216 18.001 15.75 17.3294 15.75 16.501C15.75 15.6725 16.4216 15.001 17.25 15.001C18.0784 15.001 18.75 15.6725 18.75 16.501ZM18.524 10.7L18.966 12.152C19.0387 12.3933 19.2005 12.5979 19.4185 12.7243C19.6365 12.8508 19.8944 12.8896 20.14 12.833L21.612 12.492C21.8912 12.4288 22.1833 12.4567 22.4454 12.5717C22.7076 12.6867 22.9259 12.8827 23.0686 13.1309C23.2112 13.3791 23.2705 13.6664 23.2378 13.9508C23.2051 14.2352 23.0822 14.5016 22.887 14.711L21.856 15.82C21.6839 16.005 21.5883 16.2483 21.5883 16.501C21.5883 16.7536 21.6839 16.9969 21.856 17.182L22.887 18.293C23.0817 18.5024 23.2043 18.7687 23.2367 19.0529C23.2692 19.337 23.2098 19.6241 23.0672 19.8721C22.9247 20.12 22.7065 20.3158 22.4447 20.4308C22.1828 20.5457 21.891 20.5739 21.612 20.511L20.14 20.17C19.8944 20.1133 19.6365 20.1521 19.4185 20.2786C19.2005 20.4051 19.0387 20.6097 18.966 20.851L18.524 22.3C18.4419 22.574 18.2735 22.8143 18.044 22.9851C17.8145 23.1559 17.5361 23.2481 17.25 23.2481C16.9639 23.2481 16.6855 23.1559 16.456 22.9851C16.2265 22.8143 16.0581 22.574 15.976 22.3L15.534 20.848C15.4613 20.6067 15.2995 20.4021 15.0815 20.2756C14.8635 20.1491 14.6056 20.1103 14.36 20.167L12.888 20.508C12.609 20.5709 12.3172 20.5427 12.0553 20.4278C11.7935 20.3128 11.5753 20.117 11.4328 19.8691C11.2902 19.6211 11.2308 19.334 11.2633 19.0499C11.2957 18.7657 11.4183 18.4994 11.613 18.29L12.644 17.179C12.8161 16.9939 12.9117 16.7506 12.9117 16.498C12.9117 16.2453 12.8161 16.002 12.644 15.817L11.613 14.706C11.4178 14.4966 11.2949 14.2302 11.2622 13.9458C11.2295 13.6614 11.2888 13.3741 11.4314 13.1259C11.5741 12.8777 11.7924 12.6817 12.0546 12.5667C12.3167 12.4517 12.6088 12.4238 12.888 12.487L14.36 12.828C14.6056 12.8846 14.8635 12.8458 15.0815 12.7193C15.2995 12.5929 15.4613 12.3883 15.534 12.147L15.976 10.695C16.0587 10.4211 16.2275 10.1812 16.4573 10.0108C16.6871 9.84048 16.9658 9.74878 17.2519 9.74934C17.5379 9.7499 17.8162 9.84269 18.0454 10.0139C18.2746 10.1852 18.4424 10.4258 18.524 10.7Z" stroke="#050E1D" stroke-width="1.5" stroke-linecap="round" stroke-linejoin="round"/>
</g>
<defs>
<clipPath id="clip0_91_7014">
<rect width="24" height="24" fill="white"/>
</clipPath>
</defs>
</svg>
