<svg width="24" height="24" viewBox="0 0 24 24" fill="none" xmlns="http://www.w3.org/2000/svg">
<g clip-path="url(#clip0_91_7017)">
<path d="M12 9.75098C5.787 9.75098 0.75 7.73598 0.75 5.25098M0.75 5.25098C0.75 2.76598 5.787 0.750977 12 0.750977C18.213 0.750977 23.25 2.76498 23.25 5.25098M0.75 5.25098V11.251M23.25 5.25098C23.25 6.43198 22.112 7.50698 20.25 8.30998M23.25 5.25098V8.25098M0.75 11.251C0.75 13.217 3.9 14.888 8.3 15.5M0.75 11.251V17.251C0.75 19.406 4.538 21.207 9.596 21.651M19.5 15.751H23.25V11.251M23.061 15.751C22.7234 14.4419 21.9536 13.2852 20.8763 12.4684C19.7991 11.6516 18.4775 11.2225 17.1259 11.2507C15.7743 11.2789 14.4718 11.7628 13.4296 12.6238C12.3874 13.4849 11.6665 14.6727 11.3838 15.9947C11.1011 17.3167 11.2731 18.6954 11.872 19.9074C12.4709 21.1195 13.4616 22.0937 14.6834 22.6722C15.9053 23.2508 17.2867 23.3997 18.6038 23.0949C19.9209 22.7901 21.0965 22.0495 21.94 20.993" stroke="#050E1D" stroke-width="1.5" stroke-linecap="round" stroke-linejoin="round"/>
</g>
<defs>
<clipPath id="clip0_91_7017">
<rect width="24" height="24" fill="white"/>
</clipPath>
</defs>
</svg>
