<svg width="24" height="24" viewBox="0 0 24 24" fill="none" xmlns="http://www.w3.org/2000/svg">
<g clip-path="url(#clip0_91_7020)">
<path d="M0.75 14.251V23.251M0.75 21.751H15.75C15.75 20.9553 15.4339 20.1923 14.8713 19.6297C14.3087 19.067 13.5456 18.751 12.75 18.751H9M9 18.751C9 17.9553 8.68393 17.1923 8.12132 16.6297C7.55871 16.067 6.79565 15.751 6 15.751H0.75M9 18.751H6M23.25 3.75098C23.25 5.40783 20.2279 6.75098 16.5 6.75098C12.7721 6.75098 9.75 5.40783 9.75 3.75098M23.25 3.75098C23.25 2.09412 20.2279 0.750977 16.5 0.750977C12.7721 0.750977 9.75 2.09412 9.75 3.75098M23.25 3.75098V8.25098M9.75 3.75098V8.25098M9.75 8.25098C9.75 9.90798 12.772 11.251 16.5 11.251C20.228 11.251 23.25 9.90798 23.25 8.25098M9.75 8.25098V12.751M23.25 8.25098V12.751C23.25 14.408 20.228 15.751 16.5 15.751" stroke="#050E1D" stroke-width="1.5" stroke-linecap="round" stroke-linejoin="round"/>
</g>
<defs>
<clipPath id="clip0_91_7020">
<rect width="24" height="24" fill="white"/>
</clipPath>
</defs>
</svg>
