<svg width="24" height="24" viewBox="0 0 24 24" fill="none" xmlns="http://www.w3.org/2000/svg">
<g clip-path="url(#clip0_91_7005)">
<path d="M18.75 12.1V6C18.75 5.60218 18.592 5.22064 18.3107 4.93934C18.0294 4.65804 17.6478 4.5 17.25 4.5H12.75M12.75 4.5V3.75C12.75 3.55109 12.671 3.36032 12.5303 3.21967C12.3897 3.07902 12.1989 3 12 3H7.5C7.30109 3 7.11032 3.07902 6.96967 3.21967C6.82902 3.36032 6.75 3.55109 6.75 3.75V4.5M12.75 4.5C12.75 4.89782 12.592 5.27936 12.3107 5.56066C12.0294 5.84196 11.6478 6 11.25 6H8.25C7.85218 6 7.47064 5.84196 7.18934 5.56066C6.90804 5.27936 6.75 4.89782 6.75 4.5M6.75 4.5H2.25C1.85218 4.5 1.47064 4.65804 1.18934 4.93934C0.908035 5.22064 0.75 5.60218 0.75 6V15C0.75 15.3978 0.908035 15.7794 1.18934 16.0607C1.47064 16.342 1.85218 16.5 2.25 16.5H6.75M6 16.5L3.75 21.75M9.75 0.75V3M9.75 17.066V20.837M12.75 18.185V21.3C12.7492 21.4506 12.7938 21.598 12.878 21.7228C12.9622 21.8477 13.0821 21.9443 13.222 22L16.222 23.2C16.4007 23.272 16.6003 23.272 16.779 23.2L19.779 22C19.9188 21.9443 20.0386 21.8476 20.1226 21.7227C20.2066 21.5979 20.251 21.4505 20.25 21.3V18.185M16.5 14.308L9.75 17.087L16.5 19.558L23.25 17.087L16.5 14.308Z" stroke="#050E1D" stroke-width="1.5" stroke-linecap="round" stroke-linejoin="round"/>
</g>
<defs>
<clipPath id="clip0_91_7005">
<rect width="24" height="24" fill="white"/>
</clipPath>
</defs>
</svg>
