<svg width="24" height="24" viewBox="0 0 24 24" fill="none" xmlns="http://www.w3.org/2000/svg">
<path d="M23.25 6.75C23.25 7.93669 22.8981 9.09673 22.2388 10.0834C21.5795 11.0701 20.6425 11.8392 19.5461 12.2933C18.4497 12.7474 17.2433 12.8662 16.0795 12.6347C14.9156 12.4032 13.8465 11.8318 13.0074 10.9926C12.1682 10.1535 11.5968 9.08443 11.3653 7.92054C11.1338 6.75666 11.2526 5.55026 11.7067 4.4539C12.1608 3.35754 12.9299 2.42047 13.9166 1.76118C14.9033 1.10189 16.0633 0.75 17.25 0.75M23.25 2.25L17.78 7.719C17.7104 7.78866 17.6278 7.84393 17.5369 7.88164C17.4459 7.91935 17.3484 7.93875 17.25 7.93875C17.1516 7.93875 17.0541 7.91935 16.9631 7.88164C16.8722 7.84393 16.7896 7.78866 16.72 7.719L15 6M6 23.25H18M0.75 17.25H23.25M0.75 17.25C0.75 18.0456 1.06607 18.8087 1.62868 19.3713C2.19129 19.9339 2.95435 20.25 3.75 20.25H20.25C21.0456 20.25 21.8087 19.9339 22.3713 19.3713C22.9339 18.8087 23.25 18.0456 23.25 17.25M0.75 17.25V6.75C0.75 5.95435 1.06607 5.19129 1.62868 4.62868C2.19129 4.06607 2.95435 3.75 3.75 3.75H8.25M23.25 17.25V14.25M15.75 23.25H8.25L9 20.25H15L15.75 23.25Z" stroke="#050E1D" stroke-width="1.5" stroke-linecap="round" stroke-linejoin="round"/>
</svg>
