<svg width="24" height="24" viewBox="0 0 24 24" fill="none" xmlns="http://www.w3.org/2000/svg">
<g clip-path="url(#clip0_91_6981)">
<path d="M20.2499 5.25097V14.251C20.2499 14.6488 20.0919 15.0303 19.8106 15.3116C19.5293 15.5929 19.1477 15.751 18.7499 15.751H5.2499C4.85208 15.751 4.47055 15.5929 4.18924 15.3116C3.90794 15.0303 3.7499 14.6488 3.7499 14.251V5.25097M10.4999 20.251H13.4999M11.9999 2.41197C11.9999 2.41197 12.4769 0.911967 16.5609 0.751967C16.6447 0.74458 16.7291 0.753902 16.8092 0.779392C16.8893 0.804882 16.9636 0.846033 17.0277 0.900455C17.0918 0.954877 17.1444 1.02149 17.1826 1.09642C17.2207 1.17135 17.2436 1.25312 17.2499 1.33697V7.51097C17.2361 7.67346 17.1603 7.82439 17.0381 7.93241C16.9159 8.04042 16.7569 8.09721 16.5939 8.09097C12.4839 8.23797 11.9999 9.75097 11.9999 9.75097M11.9999 2.41197V9.75097M11.9999 2.41197C11.9999 2.41197 11.5229 0.906967 7.4389 0.751967C7.35514 0.74458 7.27075 0.753902 7.19062 0.779392C7.11049 0.804882 7.03623 0.846033 6.97213 0.900455C6.90803 0.954877 6.85538 1.02149 6.81723 1.09642C6.77908 1.17135 6.7562 1.25312 6.7499 1.33697V7.51097C6.76367 7.67346 6.83952 7.82439 6.96169 7.93241C7.08386 8.04042 7.24295 8.09721 7.4059 8.09097C11.5159 8.23797 11.9999 9.75097 11.9999 9.75097M21.7479 23.251H2.2519C1.9963 23.251 1.74494 23.1856 1.52167 23.0612C1.29841 22.9368 1.11065 22.7573 0.976205 22.5399C0.841764 22.3225 0.765104 22.0744 0.7535 21.8191C0.741896 21.5637 0.795733 21.3097 0.909903 21.081L2.7459 17.41C2.99495 16.9116 3.37787 16.4924 3.85175 16.1994C4.32563 15.9063 4.87175 15.7511 5.4289 15.751H18.5709C19.1281 15.7511 19.6742 15.9063 20.1481 16.1994C20.6219 16.4924 21.0049 16.9116 21.2539 17.41L23.0899 21.081C23.2041 21.3097 23.2579 21.5637 23.2463 21.8191C23.2347 22.0744 23.158 22.3225 23.0236 22.5399C22.8892 22.7573 22.7014 22.9368 22.4781 23.0612C22.2549 23.1856 22.0035 23.251 21.7479 23.251Z" stroke="#050E1D" stroke-width="1.5" stroke-linecap="round" stroke-linejoin="round"/>
</g>
<defs>
<clipPath id="clip0_91_6981">
<rect width="24" height="24" fill="white"/>
</clipPath>
</defs>
</svg>
