<svg width="24" height="24" viewBox="0 0 24 24" fill="none" xmlns="http://www.w3.org/2000/svg">
<path d="M7.974 11.635L10.225 9.38398M16.026 11.635L13.775 9.38398M2.25 17V4.25098C2.25 3.85315 2.40804 3.47162 2.68934 3.19032C2.97064 2.90901 3.35218 2.75098 3.75 2.75098H20.25C20.6478 2.75098 21.0294 2.90901 21.3107 3.19032C21.592 3.47162 21.75 3.85315 21.75 4.25098V17M14.25 8.00098C14.25 9.24362 13.2426 10.251 12 10.251C10.7574 10.251 9.75 9.24362 9.75 8.00098C9.75 6.75834 10.7574 5.75098 12 5.75098C13.2426 5.75098 14.25 6.75834 14.25 8.00098ZM8.25 12.501C8.25 13.3294 7.57843 14.001 6.75 14.001C5.92157 14.001 5.25 13.3294 5.25 12.501C5.25 11.6725 5.92157 11.001 6.75 11.001C7.57843 11.001 8.25 11.6725 8.25 12.501ZM18.75 12.501C18.75 13.3294 18.0784 14.001 17.25 14.001C16.4216 14.001 15.75 13.3294 15.75 12.501C15.75 11.6725 16.4216 11.001 17.25 11.001C18.0784 11.001 18.75 11.6725 18.75 12.501ZM14.584 17C14.3237 17.4555 13.9476 17.8342 13.4938 18.0976C13.04 18.3609 12.5247 18.4997 12 18.4997C11.4753 18.4997 10.96 18.3609 10.5062 18.0976C10.0524 17.8342 9.67628 17.4555 9.416 17H0.75V18.5C0.75 19.2956 1.06607 20.0587 1.62868 20.6213C2.19129 21.1839 2.95435 21.5 3.75 21.5H20.25C21.0456 21.5 21.8087 21.1839 22.3713 20.6213C22.9339 20.0587 23.25 19.2956 23.25 18.5V17H14.584Z" stroke="#050E1D" stroke-width="1.5" stroke-linecap="round" stroke-linejoin="round"/>
</svg>
