<svg width="24" height="24" viewBox="0 0 24 24" fill="none" xmlns="http://www.w3.org/2000/svg">
<g clip-path="url(#clip0_91_6972)">
<path d="M15.7499 4.12598V8.08498L12.7499 9.00098L9.74991 8.08498V4.12598M6.74991 3.00098L12.7499 0.750977L18.7499 3.00098L12.7499 5.25098L6.74991 3.00098ZM6.74991 3.00098V6.00098M20.2499 5.25098V14.251C20.2499 14.6488 20.0919 15.0303 19.8106 15.3116C19.5293 15.5929 19.1477 15.751 18.7499 15.751H5.24991C4.85209 15.751 4.47056 15.5929 4.18925 15.3116C3.90795 15.0303 3.74991 14.6488 3.74991 14.251V5.25098M10.4999 20.251H13.4999M21.7479 23.251H2.25191C1.99617 23.2511 1.74466 23.1857 1.52127 23.0612C1.29788 22.9368 1.11002 22.7572 0.975554 22.5397C0.841086 22.3221 0.764468 22.0738 0.752979 21.8184C0.741491 21.5629 0.795513 21.3087 0.909914 21.08L2.74591 17.41C2.99496 16.9116 3.37788 16.4924 3.85176 16.1994C4.32564 15.9064 4.87176 15.7511 5.42891 15.751H18.5709C19.1281 15.7511 19.6742 15.9064 20.1481 16.1994C20.6219 16.4924 21.0049 16.9116 21.2539 17.41L23.0899 21.08C23.2043 21.3087 23.2583 21.5629 23.2468 21.8184C23.2354 22.0738 23.1587 22.3221 23.0243 22.5397C22.8898 22.7572 22.702 22.9368 22.4786 23.0612C22.2552 23.1857 22.0037 23.2511 21.7479 23.251Z" stroke="#050E1D" stroke-width="1.5" stroke-linecap="round" stroke-linejoin="round"/>
</g>
<defs>
<clipPath id="clip0_91_6972">
<rect width="24" height="24" fill="white"/>
</clipPath>
</defs>
</svg>
