<svg width="24" height="24" viewBox="0 0 24 24" fill="none" xmlns="http://www.w3.org/2000/svg">
<path d="M14.8128 11.048V14.798L11.9998 15.736L9.18784 14.798V11.048M6.37484 10.111L11.9998 8.23597L17.6248 10.111L11.9998 11.986L6.37484 10.111ZM6.37484 10.111V13.286M20.9858 12.485C21.0869 10.6652 20.633 8.85768 19.6844 7.30148C18.7357 5.74528 17.337 4.51377 15.6731 3.76987C14.0093 3.02597 12.1589 2.80475 10.3666 3.13547C8.57426 3.46618 6.92461 4.33326 5.63584 5.62197L5.10584 6.15197M5.10584 6.15197H8.28784M5.10584 6.15197V2.96997M3.01384 11.487C2.91281 13.3067 3.36664 15.1143 4.31529 16.6705C5.26395 18.2267 6.66272 19.4582 8.32654 20.2021C9.99037 20.946 11.8408 21.1672 13.6331 20.8365C15.4254 20.5058 17.0751 19.6387 18.3638 18.35L18.8938 17.819M18.8938 17.819H15.7118M18.8938 17.819V21.001" stroke="#050E1D" stroke-width="1.5" stroke-linecap="round" stroke-linejoin="round"/>
</svg>
