<svg width="24" height="24" viewBox="0 0 24 24" fill="none" xmlns="http://www.w3.org/2000/svg">
<g clip-path="url(#clip0_91_7002)">
<path d="M6 23.251H18M18.75 7.50098V9.75098M18.75 7.50098L12 10.501L5.25 7.50098L12 4.50098L18.75 7.50098ZM15.75 8.83498V12.751C14.7276 13.6916 13.3961 14.2252 12.007 14.251C10.6142 14.223 9.27905 13.6899 8.25 12.751V8.83498M2.25 0.750977H21.75C22.5784 0.750977 23.25 1.42255 23.25 2.25098V17.251C23.25 18.0794 22.5784 18.751 21.75 18.751H2.25C1.42157 18.751 0.75 18.0794 0.75 17.251V2.25098C0.75 1.42255 1.42157 0.750977 2.25 0.750977ZM15.75 23.251H8.25L9 18.751H15L15.75 23.251Z" stroke="#050E1D" stroke-width="1.5" stroke-linecap="round" stroke-linejoin="round"/>
</g>
<defs>
<clipPath id="clip0_91_7002">
<rect width="24" height="24" fill="white"/>
</clipPath>
</defs>
</svg>
