<svg width="24" height="24" viewBox="0 0 24 24" fill="none" xmlns="http://www.w3.org/2000/svg">
<g clip-path="url(#clip0_91_7098)">
<path d="M3.75 9C2.95435 9 2.19129 9.31607 1.62868 9.87868C1.06607 10.4413 0.75 11.2044 0.75 12V15C0.75 15.7956 1.06607 16.5587 1.62868 17.1213C2.19129 17.6839 2.95435 18 3.75 18H4.5C4.69891 18 4.88968 17.921 5.03033 17.7803C5.17098 17.6397 5.25 17.4489 5.25 17.25V9.75C5.25 9.55109 5.17098 9.36032 5.03033 9.21967C4.88968 9.07902 4.69891 9 4.5 9H3.75ZM3.75 9C3.75 6.81196 4.61919 4.71354 6.16637 3.16637C7.71354 1.61919 9.81196 0.75 12 0.75C14.188 0.75 16.2865 1.61919 17.8336 3.16637C19.3808 4.71354 20.25 6.81196 20.25 9M20.25 18H19.5C19.3011 18 19.1103 17.921 18.9697 17.7803C18.829 17.6397 18.75 17.4489 18.75 17.25V9.75C18.75 9.55109 18.829 9.36032 18.9697 9.21967C19.1103 9.07902 19.3011 9 19.5 9H20.25M20.25 18C21.0456 18 21.8087 17.6839 22.3713 17.1213C22.9339 16.5587 23.25 15.7956 23.25 15V12C23.25 11.2044 22.9339 10.4413 22.3713 9.87868C21.8087 9.31607 21.0456 9 20.25 9M20.25 18V18.75C20.25 19.5456 19.9339 20.3087 19.3713 20.8713C18.8087 21.4339 18.0456 21.75 17.25 21.75H15M15 21.75C15 21.3522 14.842 20.9706 14.5607 20.6893C14.2794 20.408 13.8978 20.25 13.5 20.25H12C11.6022 20.25 11.2206 20.408 10.9393 20.6893C10.658 20.9706 10.5 21.3522 10.5 21.75C10.5 22.1478 10.658 22.5294 10.9393 22.8107C11.2206 23.092 11.6022 23.25 12 23.25H13.5C13.8978 23.25 14.2794 23.092 14.5607 22.8107C14.842 22.5294 15 22.1478 15 21.75ZM9 15.442C9.82032 16.1895 10.8902 16.6039 12 16.6039C13.1098 16.6039 14.1797 16.1895 15 15.442M9 9.985V11.297M15 9.985V11.297" stroke="#050E1D" stroke-width="1.5" stroke-linecap="round" stroke-linejoin="round"/>
</g>
<defs>
<clipPath id="clip0_91_7098">
<rect width="24" height="24" fill="white"/>
</clipPath>
</defs>
</svg>
