<svg width="24" height="24" viewBox="0 0 24 24" fill="none" xmlns="http://www.w3.org/2000/svg">
<g clip-path="url(#clip0_91_7104)">
<path d="M3.75 18.748C3.82555 17.0856 4.55669 15.5209 5.78337 14.3964C7.01004 13.2718 8.63231 12.6791 10.295 12.748H13.705C15.3677 12.6791 16.99 13.2718 18.2166 14.3964C19.4433 15.5209 20.1745 17.0856 20.25 18.748M3.75 18.748C2.50736 18.748 1.5 19.7554 1.5 20.998C1.5 22.2407 2.50736 23.248 3.75 23.248C4.99264 23.248 6 22.2407 6 20.998C6 19.7554 4.99264 18.748 3.75 18.748ZM20.25 18.748C19.0074 18.748 18 19.7554 18 20.998C18 22.2407 19.0074 23.248 20.25 23.248C21.4926 23.248 22.5 22.2407 22.5 20.998C22.5 19.7554 21.4926 18.748 20.25 18.748ZM12 6.74805V18.748M12 6.74805C13.6569 6.74805 15 5.4049 15 3.74805C15 2.09119 13.6569 0.748047 12 0.748047C10.3431 0.748047 9 2.09119 9 3.74805C9 5.4049 10.3431 6.74805 12 6.74805ZM12 18.748C10.7574 18.748 9.75 19.7554 9.75 20.998C9.75 22.2407 10.7574 23.248 12 23.248C13.2426 23.248 14.25 22.2407 14.25 20.998C14.25 19.7554 13.2426 18.748 12 18.748Z" stroke="#050E1D" stroke-width="1.5" stroke-linecap="round" stroke-linejoin="round"/>
</g>
<defs>
<clipPath id="clip0_91_7104">
<rect width="24" height="24" fill="white"/>
</clipPath>
</defs>
</svg>
