<svg width="24" height="24" viewBox="0 0 24 24" fill="none" xmlns="http://www.w3.org/2000/svg">
<g clip-path="url(#clip0_91_7026)">
<path d="M13.5 14.248C15.5711 14.248 17.25 12.5691 17.25 10.498C17.25 8.42698 15.5711 6.74805 13.5 6.74805C11.4289 6.74805 9.75 8.42698 9.75 10.498C9.75 12.5691 11.4289 14.248 13.5 14.248ZM13.5 14.248V18.748M13.5 18.748C12.2574 18.748 11.25 19.7554 11.25 20.998C11.25 22.2407 12.2574 23.248 13.5 23.248C14.7426 23.248 15.75 22.2407 15.75 20.998C15.75 19.7554 14.7426 18.748 13.5 18.748ZM16.151 7.84805L19.411 4.58805M16.794 12.292L19.079 14.577M10.851 13.147L4.59 19.408M10.001 9.14905L5.61 6.51405M23.25 2.99805C23.25 4.24069 22.2426 5.24805 21 5.24805C19.7574 5.24805 18.75 4.24069 18.75 2.99805C18.75 1.75541 19.7574 0.748047 21 0.748047C22.2426 0.748047 23.25 1.75541 23.25 2.99805ZM23.25 15.748C23.25 16.9907 22.2426 17.998 21 17.998C19.7574 17.998 18.75 16.9907 18.75 15.748C18.75 14.5054 19.7574 13.498 21 13.498C22.2426 13.498 23.25 14.5054 23.25 15.748ZM5.25 20.998C5.25 22.2407 4.24264 23.248 3 23.248C1.75736 23.248 0.75 22.2407 0.75 20.998C0.75 19.7554 1.75736 18.748 3 18.748C4.24264 18.748 5.25 19.7554 5.25 20.998ZM6 5.24805C6 6.49069 4.99264 7.49805 3.75 7.49805C2.50736 7.49805 1.5 6.49069 1.5 5.24805C1.5 4.00541 2.50736 2.99805 3.75 2.99805C4.99264 2.99805 6 4.00541 6 5.24805Z" stroke="#050E1D" stroke-width="1.5" stroke-linecap="round" stroke-linejoin="round"/>
</g>
<defs>
<clipPath id="clip0_91_7026">
<rect width="24" height="24" fill="white"/>
</clipPath>
</defs>
</svg>
