<svg width="24" height="24" viewBox="0 0 24 24" fill="none" xmlns="http://www.w3.org/2000/svg">
<g clip-path="url(#clip0_91_7110)">
<path d="M0.753906 14.242V23.242M0.753906 21.742H15.7539C15.7539 20.9464 15.4378 20.1833 14.8752 19.6207C14.3126 19.0581 13.5496 18.742 12.7539 18.742H8.99991C8.99991 17.9464 8.68384 17.1833 8.12123 16.6207C7.55862 16.0581 6.79556 15.742 5.99991 15.742H0.753906M6.00391 18.742H9.00391M10.7269 13.756C11.4901 12.4947 12.6451 11.5179 14.0156 10.9747C15.3861 10.4316 16.8967 10.352 18.3167 10.748C19.7366 11.1441 20.988 11.9941 21.8795 13.1681C22.771 14.3422 23.2537 15.7758 23.2539 17.25H16.4999M20.6289 4.875C20.6289 7.15317 18.7821 9 16.5039 9C14.2257 9 12.3789 7.15317 12.3789 4.875C12.3789 2.59683 14.2257 0.75 16.5039 0.75C18.7821 0.75 20.6289 2.59683 20.6289 4.875Z" stroke="#050E1D" stroke-width="1.5" stroke-linecap="round" stroke-linejoin="round"/>
</g>
<defs>
<clipPath id="clip0_91_7110">
<rect width="24" height="24" fill="white"/>
</clipPath>
</defs>
</svg>
