<svg width="24" height="24" viewBox="0 0 24 24" fill="none" xmlns="http://www.w3.org/2000/svg">
<g clip-path="url(#clip0_91_6918)">
<path d="M10.501 11.25H13.501M0.75 21.75H10.5M10.5 21.75C10.5 22.5784 11.1716 23.25 12 23.25C12.8284 23.25 13.5 22.5784 13.5 21.75M10.5 21.75C10.5 20.9216 11.1716 20.25 12 20.25M13.5 21.75H23.25M13.5 21.75C13.5 20.9216 12.8284 20.25 12 20.25M12 17.25V20.25M18 14.25H6C5.75809 14.2492 5.51996 14.19 5.30591 14.0773C5.09186 13.9646 4.90824 13.8018 4.77071 13.6027C4.63319 13.4037 4.54584 13.1744 4.51612 12.9343C4.48639 12.6943 4.51517 12.4505 4.6 12.224L5.64 9.224C5.74683 8.93868 5.93801 8.69266 6.18811 8.51867C6.4382 8.34468 6.73534 8.25097 7.04 8.25H16.961C17.2657 8.25097 17.5628 8.34468 17.8129 8.51867C18.063 8.69266 18.2542 8.93868 18.361 9.224L19.401 12.224C19.4859 12.4506 19.5146 12.6944 19.4849 12.9346C19.4551 13.1747 19.3676 13.4041 19.23 13.6032C19.0924 13.8022 18.9086 13.965 18.6944 14.0776C18.4802 14.1903 18.242 14.2494 18 14.25ZM7.501 0.75H16.501C17.3294 0.75 18.001 1.42157 18.001 2.25V6.75C18.001 7.57843 17.3294 8.25 16.501 8.25H7.501C6.67257 8.25 6.001 7.57843 6.001 6.75V2.25C6.001 1.42157 6.67257 0.75 7.501 0.75Z" stroke="#050E1D" stroke-width="1.5" stroke-linecap="round" stroke-linejoin="round"/>
</g>
<defs>
<clipPath id="clip0_91_6918">
<rect width="24" height="24" fill="white"/>
</clipPath>
</defs>
</svg>
