<svg width="24" height="24" viewBox="0 0 24 24" fill="none" xmlns="http://www.w3.org/2000/svg">
<g clip-path="url(#clip0_91_7101)">
<path d="M19.5 3.729H21C21.3978 3.729 21.7794 3.88704 22.0607 4.16834C22.342 4.44965 22.5 4.83118 22.5 5.229V21.729C22.5 22.1268 22.342 22.5084 22.0607 22.7897C21.7794 23.071 21.3978 23.229 21 23.229H13.5M10.5 23.229V17.229H7.5V12.729H10.5V6.729H13.5V0.729004M13.5 0.729004L10.5 3.697M13.5 0.729004L16.5 3.697M15 15.729V20.229M6.75 3.729H3C2.60218 3.729 2.22064 3.88704 1.93934 4.16834C1.65804 4.44965 1.5 4.83118 1.5 5.229V21.729C1.5 22.1268 1.65804 22.5084 1.93934 22.7897C2.22064 23.071 2.60218 23.229 3 23.229H7.5V20.229H4.5V17.979M18 23.229V14.229H19.5M22.5 11.229H15V12.729M4.5 7.479V9.729H6.75M18 11.229V8.229" stroke="#050E1D" stroke-width="1.5" stroke-linecap="round" stroke-linejoin="round"/>
</g>
<defs>
<clipPath id="clip0_91_7101">
<rect width="24" height="24" fill="white"/>
</clipPath>
</defs>
</svg>
