<svg width="24" height="24" viewBox="0 0 24 24" fill="none" xmlns="http://www.w3.org/2000/svg">
<g clip-path="url(#clip0_91_7011)">
<path d="M6.74805 23.2531H17.248M23.248 15.7531V3.75305C23.248 2.0962 21.9049 0.753052 20.248 0.753052H3.74805C2.09119 0.753052 0.748047 2.0962 0.748047 3.75305V15.7531M23.248 15.7531C23.248 17.4099 21.9049 18.7531 20.248 18.7531H3.74805C2.09119 18.7531 0.748047 17.4099 0.748047 15.7531M23.248 15.7531H0.748047M0.748047 11.2531L4.71805 7.28405C4.7877 7.21436 4.8704 7.15907 4.96142 7.12135C5.05245 7.08363 5.15001 7.06421 5.24855 7.06421C5.34708 7.06421 5.44464 7.08363 5.53567 7.12135C5.6267 7.15907 5.7094 7.21436 5.77905 7.28405L7.71805 9.22305C7.7877 9.29275 7.8704 9.34803 7.96142 9.38575C8.05245 9.42348 8.15001 9.44289 8.24855 9.44289C8.34708 9.44289 8.44464 9.42348 8.53567 9.38575C8.6267 9.34803 8.7094 9.29275 8.77905 9.22305L12.748 5.25305M14.248 9.75305V12.0031M20.248 9.75305V12.0031M17.248 7.50305V12.0031M14.998 23.2531H8.99805L9.74805 18.7531H14.248L14.998 23.2531Z" stroke="#050E1D" stroke-width="1.5" stroke-linecap="round" stroke-linejoin="round"/>
</g>
<defs>
<clipPath id="clip0_91_7011">
<rect width="24" height="24" fill="white"/>
</clipPath>
</defs>
</svg>
