<svg width="24" height="24" viewBox="0 0 24 24" fill="none" xmlns="http://www.w3.org/2000/svg">
<g clip-path="url(#clip0_91_7116)">
<path d="M14.25 16.125V13.875C14.6478 13.875 15.0294 13.717 15.3107 13.4357C15.592 13.1544 15.75 12.7728 15.75 12.375V10.875C15.75 10.0794 15.4339 9.31629 14.8713 8.75368C14.3087 8.19107 13.5456 7.875 12.75 7.875H11.25C10.4544 7.875 9.69129 8.19107 9.12868 8.75368C8.56607 9.31629 8.25 10.0794 8.25 10.875V12.375C8.25 12.7728 8.40804 13.1544 8.68934 13.4357C8.97064 13.717 9.35218 13.875 9.75 13.875V16.125M0.75 20.25C4.21894 22.103 8.06901 23.1297 12 23.25C15.931 23.1297 19.7811 22.103 23.25 20.25M3 17.25C5.8186 18.5964 8.8794 19.3616 12 19.5C15.1206 19.3616 18.1814 18.5964 21 17.25M14.625 3.375C14.625 4.82475 13.4497 6 12 6C10.5503 6 9.375 4.82475 9.375 3.375C9.375 1.92525 10.5503 0.75 12 0.75C13.4497 0.75 14.625 1.92525 14.625 3.375Z" stroke="black" stroke-width="1.5" stroke-linecap="round" stroke-linejoin="round"/>
</g>
<defs>
<clipPath id="clip0_91_7116">
<rect width="24" height="24" fill="white"/>
</clipPath>
</defs>
</svg>
