<svg width="24" height="24" viewBox="0 0 24 24" fill="none" xmlns="http://www.w3.org/2000/svg">
<path d="M5.00002 19.251V20.251C4.99185 20.4421 5.04445 20.6309 5.15027 20.7903C5.25609 20.9496 5.40969 21.0714 5.58902 21.138L12.5 23.251M12.5 23.251V14.418M12.5 23.251L19.425 21.144C19.6046 21.0778 19.7584 20.9562 19.8642 20.7967C19.9699 20.6372 20.022 20.4481 20.013 20.257V19.1M12.5 14.418L6.02702 12.045C5.89884 12.0101 5.76409 12.007 5.63445 12.036C5.50481 12.0649 5.38418 12.125 5.28302 12.2111C5.18185 12.2972 5.10321 12.4067 5.0539 12.53C5.00458 12.6534 4.98609 12.7869 5.00002 12.919V14.763M12.5 14.418L18.986 12.045C19.1142 12.0101 19.2489 12.007 19.3786 12.036C19.5082 12.0649 19.6289 12.125 19.73 12.2111C19.8312 12.2972 19.9098 12.4067 19.9591 12.53C20.0085 12.6534 20.0269 12.7869 20.013 12.919V14.907M6.48702 18.358C6.48702 18.858 5.92402 19.258 5.23602 19.251C3.85802 19.245 2.74502 18.435 2.75002 17.441V16.541C2.75002 15.548 3.87502 14.748 5.25002 14.754C5.93902 14.754 6.49502 15.162 6.49302 15.654L6.48702 18.358ZM17.757 18.358C17.757 18.858 18.32 19.258 19.01 19.251C20.39 19.245 21.505 18.435 21.5 17.441V16.541C21.5 15.548 20.373 14.748 18.993 14.754C18.304 14.754 17.746 15.162 17.749 15.654L17.757 18.358ZM16.637 4.87598C16.637 7.15415 14.7902 9.00098 12.512 9.00098C10.2338 9.00098 8.38702 7.15415 8.38702 4.87598C8.38702 2.5978 10.2338 0.750977 12.512 0.750977C14.7902 0.750977 16.637 2.5978 16.637 4.87598Z" stroke="#050E1D" stroke-width="1.5" stroke-linecap="round" stroke-linejoin="round"/>
</svg>
