<svg width="24" height="24" viewBox="0 0 24 24" fill="none" xmlns="http://www.w3.org/2000/svg">
<g clip-path="url(#clip0_91_6963)">
<path d="M18.344 9.19999L14.544 2.51799C14.281 2.06102 13.9021 1.68146 13.4457 1.41754C12.9892 1.15361 12.4713 1.01465 11.944 1.01465C11.4168 1.01465 10.8988 1.15361 10.4423 1.41754C9.98589 1.68146 9.60706 2.06102 9.34401 2.51799L8.28601 4.34799M11.942 20.1H19.5C20.0268 20.1003 20.5444 19.9619 21.0007 19.6988C21.457 19.4356 21.836 19.0569 22.0995 18.6008C22.3631 18.1447 22.5019 17.6272 22.5019 17.1005C22.502 16.5737 22.3634 16.0562 22.1 15.6L20.8 13.35M5.59401 8.84799L1.79401 15.598C1.53063 16.0542 1.39201 16.5717 1.39209 17.0985C1.39217 17.6252 1.53096 18.1427 1.79449 18.5988C2.05803 19.0549 2.43701 19.4336 2.89334 19.6968C3.34967 19.96 3.86724 20.0983 4.39401 20.098H7.44601M5.59401 8.84799L1.49601 9.94599M5.59401 8.84799L6.69201 12.946M14.942 17.098L11.942 20.098L14.942 23.098M19.442 5.09799L18.344 9.19599L14.246 8.09799" stroke="#050E1D" stroke-width="1.5" stroke-linecap="round" stroke-linejoin="round"/>
</g>
<defs>
<clipPath id="clip0_91_6963">
<rect width="24" height="24" fill="white"/>
</clipPath>
</defs>
</svg>
