<svg width="24" height="24" viewBox="0 0 24 24" fill="none" xmlns="http://www.w3.org/2000/svg">
<g clip-path="url(#clip0_91_7023)">
<path d="M12.0088 14.259C13.2515 14.259 14.2588 13.2516 14.2588 12.009C14.2588 10.7663 13.2515 9.75899 12.0088 9.75899C10.7662 9.75899 9.75882 10.7663 9.75882 12.009C9.75882 13.2516 10.7662 14.259 12.0088 14.259Z" stroke="#050E1D" stroke-width="1.5" stroke-linecap="round" stroke-linejoin="round"/>
<path d="M15.7214 15.7213C21.5793 9.86344 24.666 3.45264 22.6157 1.40239C20.5655 -0.647865 14.1547 2.43881 8.2968 8.29668C2.43893 14.1545 -0.647744 20.5653 1.40251 22.6156C3.45276 24.6658 9.86356 21.5792 15.7214 15.7213Z" stroke="#050E1D" stroke-width="1.5" stroke-linecap="round" stroke-linejoin="round"/>
<path d="M22.6157 22.6156C24.666 20.5653 21.5793 14.1545 15.7214 8.29668C9.86356 2.43881 3.45276 -0.647866 1.40251 1.40239C-0.647744 3.45264 2.43893 9.86343 8.2968 15.7213C14.1547 21.5792 20.5655 24.6658 22.6157 22.6156Z" stroke="#050E1D" stroke-width="1.5" stroke-linecap="round" stroke-linejoin="round"/>
</g>
<defs>
<clipPath id="clip0_91_7023">
<rect width="24" height="24" fill="white"/>
</clipPath>
</defs>
</svg>
