<svg width="24" height="24" viewBox="0 0 24 24" fill="none" xmlns="http://www.w3.org/2000/svg">
<g clip-path="url(#clip0_91_6936)">
<path d="M0.75 5.25H23.25M17.25 9.749L11.78 15.219C11.7104 15.2887 11.6278 15.3439 11.5369 15.3816C11.4459 15.4193 11.3484 15.4388 11.25 15.4388C11.1516 15.4388 11.0541 15.4193 10.9631 15.3816C10.8722 15.3439 10.7896 15.2887 10.72 15.219L9 13.5M23.25 9.938C23.2502 13.1285 22.1204 16.2159 20.0611 18.6527C18.0017 21.0895 15.1458 22.7183 12 23.25C8.85416 22.7183 5.9983 21.0895 3.93894 18.6527C1.87958 16.2159 0.749806 13.1285 0.75 9.938V2.25C0.75 1.85218 0.908035 1.47064 1.18934 1.18934C1.47064 0.908035 1.85218 0.75 2.25 0.75H21.75C22.1478 0.75 22.5294 0.908035 22.8107 1.18934C23.092 1.47064 23.25 1.85218 23.25 2.25V9.938Z" stroke="#050E1D" stroke-width="1.5" stroke-linecap="round" stroke-linejoin="round"/>
</g>
<defs>
<clipPath id="clip0_91_6936">
<rect width="24" height="24" fill="white"/>
</clipPath>
</defs>
</svg>
