<svg width="24" height="24" viewBox="0 0 24 24" fill="none" xmlns="http://www.w3.org/2000/svg">
<g clip-path="url(#clip0_91_7107)">
<path d="M5.38001 13.432C9.52901 14.732 12 17.232 12 21.951M12 21.951V23.251M12 21.951C12 17.232 14.471 14.732 18.62 13.432M12 21.951V6.00003M9.65101 6.00003C9.55352 5.99998 9.45778 5.97416 9.37348 5.92518C9.28919 5.87621 9.21934 5.80582 9.17101 5.72115C9.12269 5.63648 9.09761 5.54054 9.09831 5.44305C9.09901 5.34557 9.12547 5.25 9.17501 5.16603L11.524 1.00003C11.5729 0.917319 11.6425 0.848779 11.726 0.801167C11.8095 0.753555 11.9039 0.728516 12 0.728516C12.0961 0.728516 12.1905 0.753555 12.274 0.801167C12.3575 0.848779 12.4271 0.917319 12.476 1.00003L14.826 5.16503C14.8755 5.24915 14.9019 5.34485 14.9026 5.44245C14.9032 5.54005 14.878 5.63608 14.8296 5.72083C14.7812 5.80558 14.7112 5.87603 14.6269 5.92506C14.5425 5.97409 14.4466 5.99995 14.349 6.00003H9.65101ZM6.41201 10.94C6.44915 10.8498 6.46183 10.7513 6.44878 10.6546C6.43572 10.5579 6.3974 10.4663 6.33766 10.3891C6.27792 10.312 6.19889 10.2519 6.10854 10.215C6.01818 10.1781 5.91969 10.1657 5.82301 10.179L1.22301 10.826C1.1274 10.8392 1.0369 10.8772 0.960524 10.9362C0.884144 10.9952 0.824538 11.0732 0.787631 11.1624C0.750725 11.2516 0.737802 11.3489 0.750149 11.4446C0.762496 11.5403 0.799681 11.6311 0.858009 11.708L3.65001 15.415C3.70896 15.4929 3.78743 15.5538 3.87747 15.5917C3.96751 15.6295 4.06595 15.6429 4.16284 15.6306C4.25972 15.6182 4.35163 15.5805 4.42926 15.5212C4.5069 15.4619 4.56753 15.3832 4.60501 15.293L5.50501 13.117L6.41201 10.94ZM17.588 10.94C17.5509 10.8498 17.5382 10.7513 17.5512 10.6546C17.5643 10.5579 17.6026 10.4663 17.6624 10.3891C17.7221 10.312 17.8011 10.2519 17.8915 10.215C17.9818 10.1781 18.0803 10.1657 18.177 10.179L22.777 10.826C22.8726 10.8392 22.9631 10.8772 23.0395 10.9362C23.1159 10.9952 23.1755 11.0732 23.2124 11.1624C23.2493 11.2516 23.2622 11.3489 23.2499 11.4446C23.2375 11.5403 23.2003 11.6311 23.142 11.708L20.35 15.415C20.2911 15.4929 20.2126 15.5538 20.1225 15.5917C20.0325 15.6295 19.9341 15.6429 19.8372 15.6306C19.7403 15.6182 19.6484 15.5805 19.5708 15.5212C19.4931 15.4619 19.4325 15.3832 19.395 15.293L18.495 13.117L17.588 10.94Z" stroke="#050E1D" stroke-width="1.5" stroke-linecap="round" stroke-linejoin="round"/>
</g>
<defs>
<clipPath id="clip0_91_7107">
<rect width="24" height="24" fill="white"/>
</clipPath>
</defs>
</svg>
