<svg width="24" height="24" viewBox="0 0 24 24" fill="none" xmlns="http://www.w3.org/2000/svg">
<g clip-path="url(#clip0_91_7092)">
<path d="M8.24902 23.25C7.88654 22.5703 7.34615 22.002 6.68563 21.6057C6.02511 21.2093 5.26931 21 4.49902 21C3.72874 21 2.97293 21.2093 2.31242 21.6057C1.6519 22.002 1.11151 22.5703 0.749023 23.25M23.249 23.25C22.8865 22.5703 22.3461 22.002 21.6856 21.6057C21.0251 21.2093 20.2693 21 19.499 21C18.7287 21 17.9729 21.2093 17.3124 21.6057C16.6519 22.002 16.1115 22.5703 15.749 23.25M15.248 8.25C14.8473 7.77945 14.3491 7.40153 13.788 7.14238C13.2268 6.88322 12.6161 6.74901 11.998 6.74901C11.3799 6.74901 10.7692 6.88322 10.2081 7.14238C9.64696 7.40153 9.14879 7.77945 8.74802 8.25M9.05002 19.707C10.9652 20.4372 13.0833 20.4308 14.994 19.689M6.34802 6C5.52706 6.7689 4.8727 7.69816 4.42547 8.73023C3.97824 9.7623 3.74766 10.8752 3.74802 12C3.74802 12.253 3.76302 12.5 3.78602 12.75M20.211 12.75C20.233 12.502 20.249 12.25 20.249 12C20.2496 10.8752 20.0191 9.76221 19.5718 8.73012C19.1246 7.69802 18.4701 6.76879 17.649 6M7.12402 17.625C7.12402 19.0747 5.94877 20.25 4.49902 20.25C3.04928 20.25 1.87402 19.0747 1.87402 17.625C1.87402 16.1753 3.04928 15 4.49902 15C5.94877 15 7.12402 16.1753 7.12402 17.625ZM22.124 17.625C22.124 19.0747 20.9488 20.25 19.499 20.25C18.0493 20.25 16.874 19.0747 16.874 17.625C16.874 16.1753 18.0493 15 19.499 15C20.9488 15 22.124 16.1753 22.124 17.625ZM14.624 3.375C14.624 4.82475 13.4488 6 11.999 6C10.5493 6 9.37402 4.82475 9.37402 3.375C9.37402 1.92525 10.5493 0.75 11.999 0.75C13.4488 0.75 14.624 1.92525 14.624 3.375Z" stroke="#050E1D" stroke-width="1.5" stroke-linecap="round" stroke-linejoin="round"/>
</g>
<defs>
<clipPath id="clip0_91_7092">
<rect width="24" height="24" fill="white"/>
</clipPath>
</defs>
</svg>
