<svg width="24" height="24" viewBox="0 0 24 24" fill="none" xmlns="http://www.w3.org/2000/svg">
<g clip-path="url(#clip0_91_6945)">
<path d="M12 1.75298C10.8597 1.09464 9.56623 0.74809 8.24955 0.748169C6.93287 0.748248 5.63941 1.09495 4.49922 1.75343C3.35902 2.41191 2.41226 3.35895 1.75413 4.49934C1.096 5.63974 0.749683 6.9333 0.75 8.24998M15.75 8.24998C15.7513 7.21763 15.5388 6.19619 15.126 5.24998M8.25 23.25C8.75375 23.2501 9.25624 23.1998 9.75 23.1M0.75 12.75V15.75C0.749585 17.2097 1.17513 18.6378 1.97446 19.8591C2.7738 21.0805 3.91217 22.0421 5.25 22.626M12.75 9.74998V8.24998C12.7502 7.45999 12.5423 6.68388 12.1474 5.99967C11.7526 5.31546 11.1845 4.74726 10.5004 4.3522C9.81627 3.95714 9.04021 3.74913 8.25022 3.74909C7.46023 3.74905 6.68415 3.95698 6 4.35198M3.75 8.24998V15.75C3.75 16.9435 4.22411 18.088 5.06802 18.932C5.91193 19.7759 7.05653 20.25 8.25 20.25M9.75 12V8.24998C9.75 7.85215 9.59196 7.47062 9.31066 7.18932C9.02936 6.90801 8.64783 6.74998 8.25 6.74998C7.85218 6.74998 7.47064 6.90801 7.18934 7.18932C6.90804 7.47062 6.75 7.85215 6.75 8.24998V11.25M6.75 15.75C6.75 16.1478 6.90804 16.5293 7.18934 16.8106C7.47064 17.0919 7.85218 17.25 8.25 17.25M19.921 15.505L17.016 19.379C16.9514 19.4649 16.8691 19.5359 16.7747 19.5873C16.6803 19.6387 16.576 19.6692 16.4687 19.6768C16.3615 19.6844 16.2539 19.6688 16.1532 19.6313C16.0525 19.5937 15.961 19.5349 15.885 19.459L14.385 17.959M23.247 17.25C23.247 20.5637 20.5607 23.25 17.247 23.25C13.9333 23.25 11.247 20.5637 11.247 17.25C11.247 13.9363 13.9333 11.25 17.247 11.25C20.5607 11.25 23.247 13.9363 23.247 17.25Z" stroke="#050E1D" stroke-width="1.5" stroke-linecap="round" stroke-linejoin="round"/>
</g>
<defs>
<clipPath id="clip0_91_6945">
<rect width="24" height="24" fill="white"/>
</clipPath>
</defs>
</svg>
